<svg width="586" height="586" viewBox="0 0 586 586" fill="none" xmlns="http://www.w3.org/2000/svg">
<circle cx="293" cy="293" r="293" fill="black"/>
<path d="M182.224 438.012V219.321L294.78 106.708C295.17 106.317 295.804 106.317 296.194 106.708L408.75 219.321V438.012M182.224 438.012H96.7802M182.224 438.012H331.254M408.75 438.012H490.22M408.75 438.012H331.254M63 438.012H96.7802M96.7802 438.012V352.524L295.487 267.036M295.487 267.036L490.22 352.524V438.012M295.487 267.036V203.417M490.22 438.012H524M295.487 169.619V203.417M295.487 203.417H257.733M295.487 203.417H331.254M261.707 440C261.707 440 254.156 334.631 295.487 334.631C336.818 334.631 331.254 438.012 331.254 438.012" stroke="white" stroke-width="17"/>
</svg>
